<?xml version="1.0" encoding="utf-8"?>
<!-- Generator: Adobe Illustrator 26.0.2, SVG Export Plug-In . SVG Version: 6.00 Build 0)  -->
<svg version="1.1" id="Layer_1" xmlns="http://www.w3.org/2000/svg" xmlns:xlink="http://www.w3.org/1999/xlink" x="0px" y="0px"
	 viewBox="0 0 1224 792" style="enable-background:new 0 0 1224 792;" xml:space="preserve">
<style type="text/css">
	.st0{fill:#674141;}
	.st1{fill:none;}
	.st2{font-family:'Georgia-Bold';}
	.st3{font-size:49.2098px;}
</style>
<g>
	<path class="st0" d="M700.9,41.5c12.5,11.4,22.8,21.6,28.5,26.7c51.3,49.4,90.1,95.1,123.2,134.5c3.4,5.1,6.9,8.9,9.1,10.2
		c-2.3,3.8-5.6,7.6-8,10.2c-8,8.9-16,19-23.9,27.9c-10.3,12.7-20.5,25.4-31.9,36.8c-9.1,11.4-18.3,21.6-27.4,33
		c-10.3,11.4-20.5,24.1-29.7,35.6c-9.1,11.4-18.3,21.6-27.4,33c-5.6,7.6-11.4,15.2-18.3,21.6c-3.4,3.8-8,7.6-12.5,10.2
		c-10.3,6.3-20.5,10.2-31.9,6.3c-11.4-3.8-22.8-8.9-31.9-19c-5.6-6.3-11.4-12.7-16-19c-8-8.9-16-17.8-23.9-26.7
		c-11.4-12.7-21.6-25.4-33-36.8c-10.3-11.4-20.5-22.9-29.7-34.3c-10.3-11.4-21.6-22.9-31.9-35.6c-6.9-7.6-13.6-14-21.6-19
		c-4.5-3.8-16-2.5-21.6,0c-11.4,6.3-18.3,20.3-28.5,29.2c10.3,11.4,20.5,22.9,30.8,35.6c11.4,12.7,21.6,25.4,33,38.1
		c9.1,11.4,19.4,21.6,28.5,33c10.3,11.4,20.5,24.1,30.8,35.6c9.1,11.4,19.4,21.6,28.5,33c10.3,12.7,21.6,24.1,31.9,36.8
		c10.3,11.4,19.4,22.9,29.7,34.3c5.6,7.6,11.4,15.2,18.3,21.6c9.1,10.2,18.3,19,30.8,21.6c12.5,3.8,25,1.3,36.5-7.6
		c3.4-2.5,8-5.1,11.4-7.6c8-8.9,16-17.8,23.9-26.7l1.1-1.3c9.1-10.2,17.1-19,26.3-29.2c10.3-11.4,20.5-24.1,30.8-35.6
		c10.3-11.4,19.4-22.9,29.7-34.3s19.4-22.9,29.7-34.3c10.3-11.4,19.4-22.9,29.7-34.3c10.3-11.4,20.5-22.9,29.7-34.3
		c4.5-5.1,8-10.2,12.5-15.2c5.6,6.3,11.4,11.4,16,17.8c-6.9,8.9-13.6,16.5-19.4,24.1c-11.4,12.7-21.6,25.4-33,39.4
		c-9.1,11.4-18.3,21.6-27.4,33c-14.9,17.8-30.8,35.6-45.7,54.4c-9.1,11.4-18.3,21.6-27.4,33c-14.9,17.8-29.7,35.6-44.4,53.2
		c-10.3,12.7-19.4,24.1-33,33c-20.5,14-42.3,14-64.9,5.1c-2.3-1.3-3.4-2.5-5.6-3.8c-6.9-5.1-14.9-3.8-21.6,0
		c-6.9,3.8-13.6,6.3-20.5,7.6c-13.6,2.5-27.4,2.5-41-2.5c-2.3-1.3-4.5-2.5-6.9-3.8c-5.6-5.1-12.5-3.8-19.4,1.3
		c-6.9,3.8-13.6,6.3-21.6,7.6c-14.9,2.5-28.5,0-42.3-6.3c-3.4-1.3-8-2.5-12.5-3.8c-2.3,0-4.5,1.3-5.6,2.5
		c-20.5,11.4-42.3,16.5-63.8,3.8c-8-5.1-13.6-14-21.6-20.3c-1.1-1.3-1.1-1.3-2.3-2.5c-9.1-10.2-17.1-19-26.3-29.2
		c-10.3-11.4-20.5-24.1-31.9-35.6c-10.3-11.4-19.4-21.6-29.7-33c-10.3-12.7-21.6-24.1-31.9-36.8c-2.3-2.5-4.5-6.3-6.9-8.9
		c3.4-3.8,6.9-8.9,10.3-12.7c8-10.2,16-19,25-29.2c14.9-17.8,29.7-35.6,43.3-51.9c9.1-10.2,17.1-21.6,26.3-31.7
		c10.3-12.7,21.6-25.4,31.9-38.1c9.1-11.4,19.4-21.6,27.4-33c8-11.4,18.3-16.5,29.7-20.3c6.9-2.5,13.6-2.5,20.5,1.3
		c8,3.8,16,7.6,22.8,12.7c6.9,6.3,13.6,14,19.4,21.6l1.1,1.3c9.1,10.2,18.3,19,26.3,29.2c10.3,11.4,21.6,24.1,31.9,35.6
		s20.5,22.9,30.8,34.3s19.4,22.9,29.7,34.3c6.9,7.6,13.6,14,20.5,20.3c5.6,5.1,19.4,5.1,25-1.3c8-8.9,17.1-17.8,25-26.7
		c-2.3-3.8-4.5-6.3-6.9-8.9c-8-8.9-17.1-19-25-27.9c-16-17.8-31.9-35.6-46.8-54.4c-9.1-11.4-19.4-21.6-28.5-33
		c-10.3-11.4-20.5-24.1-30.8-35.6c-9.1-11.4-19.4-21.6-28.5-33c-10.3-11.4-20.5-24.1-30.8-35.6c-10.3-11.4-19.4-22.9-30.8-34.3
		c-6.9-7.6-13.6-15.2-21.6-20.3c-9.1-6.3-19.4-7.6-29.7-5.1c-14.9,3.8-27.4,12.7-37.7,24.1c-5.6,6.3-10.3,11.4-16,17.8
		c-8,8.9-16,17.8-23.9,26.7c-11.4,12.7-22.8,25.4-33,38.1c-10.3,11.4-19.4,22.9-28.5,34.3c-10.3,11.4-20.5,22.9-29.7,34.3
		c-10.3,11.4-20.5,22.9-29.7,34.3c-10.3,11.4-20.5,22.9-30.8,35.6c-4.5,5.1-8,8.9-12.5,14c-6.9-7.6-12.5-14-19.4-20.3
		c4.5-5.1,8-10.2,12.5-15.2c12.5-15.2,25-30.5,38.8-45.7c9.1-10.2,18.3-21.6,27.4-31.7c10.3-12.7,20.5-24.1,30.8-36.8
		c9.1-10.2,18.3-21.6,27.4-31.7c10.3-12.7,20.5-25.4,31.9-36.8c9.1-11.4,19.4-22.9,28.5-34.3c6.9-8.9,13.6-17.8,21.6-24.1
		c13.6-12.7,29.7-20.3,46.8-19c10.3,0,20.5,2.5,29.7,6.3c3.4,1.3,5.6,3.8,9.1,5.1c5.6,2.5,11.4,0,17.1-2.5
		c6.9-2.5,14.9-6.3,21.6-7.6c13.6-2.5,26.3-1.3,38.8,3.8c3.4,1.3,5.6,3.8,9.1,5.1c6.9,3.8,11.4,1.3,17.1-2.5s12.5-5.1,18.3-7.6
		c1.1,0,2.3-1.3,2.3-1.3c6.9,0,13.6,0,20.5,0c6.9,2.5,12.5,5.1,19.4,6.3c2.3,1.3,4.5,2.5,6.9,3.8c4.5,1.3,9.1,0,13.6-2.5
		c4.5-3.8,10.3-5.1,16-7.6C675.8,41.5,688.4,41.5,700.9,41.5z M509.2,75.8c-3.4,1.3-9.1,1.3-13.6,2.5c-5.6,1.3-5.6,3.8-2.3,8.9
		c4.5,5.1,9.1,11.4,14.9,16.5c10.3,11.4,20.5,22.9,30.8,34.3c10.3,11.4,20.5,22.9,30.8,35.6c10.3,11.4,19.4,22.9,29.7,33
		c10.3,11.4,20.5,22.9,30.8,34.3c10.3,11.4,19.4,22.9,29.7,34.3c13.6,15.2,28.5,31.7,42.3,46.8c1.1,1.3,2.3,2.5,2.3,3.8
		c5.6,8.9,16,10.2,23.9,2.5c3.4-2.5,5.6-6.3,8-10.2c4.5-5.1,4.5-7.6,0-12.7c-10.3-11.4-20.5-22.9-30.8-35.6
		c-10.3-11.4-19.4-22.9-29.7-34.3c-10.3-11.4-20.5-22.9-30.8-34.3c-10.3-11.4-20.5-22.9-29.7-34.3c-10.3-11.4-20.5-22.9-30.8-35.6
		c-9.1-10.2-18.3-20.3-27.4-29.2c-1.1-1.3-1.1-1.3-2.3-2.5C543.5,87.3,529.8,77.1,509.2,75.8z M601.7,561.3c3.4-1.3,8-1.3,11.4-2.5
		c9.1-2.5,9.1-3.8,2.3-11.4c-9.1-11.4-19.4-22.9-29.7-34.3c-11.4-12.7-22.8-26.7-34.3-39.4c-9.1-10.2-18.3-20.3-26.3-30.5
		c-10.3-11.4-20.5-22.9-30.8-35.6c-10.3-11.4-19.4-22.9-29.7-33c-10.3-11.4-21.6-24.1-31.9-35.6c-8-8.9-17.1-19-25-27.9
		c-1.1-1.3-1.1-1.3-2.3-2.5c-4.5-7.6-16-7.6-21.6-1.3c-3.4,3.8-5.6,7.6-9.1,10.2c-3.4,3.8-3.4,7.6,0,11.4
		c10.3,11.4,19.4,22.9,29.7,34.3c9.1,11.4,19.4,21.6,28.5,33c11.4,12.7,22.8,25.4,33,38.1c9.1,10.2,18.3,21.6,28.5,31.7
		c10.3,11.4,20.5,24.1,30.8,35.6c9.1,10.2,17.1,19,26.3,29.2l1.1,1.3c6.9,6.3,12.5,14,20.5,20.3C582.3,558.7,591.3,560,601.7,561.3z
		 M516.1,563.8c3.4-1.3,8-1.3,13.6-3.8c3.4-1.3,4.5-2.5,1.1-6.3c-6.9-7.6-13.6-16.5-20.5-24.1c-9.1-11.4-19.4-22.9-28.5-33
		c-11.4-14-23.9-27.9-36.5-40.6c-8-8.9-16-19-23.9-27.9c-10.3-11.4-20.5-24.1-30.8-35.6c-8-10.2-17.1-19-25-29.2
		c-1.1-1.3-1.1-1.3-1.1-2.5c-4.5-7.6-16-7.6-21.6-1.3c-3.4,3.8-5.6,7.6-9.1,10.2c-4.5,3.8-4.5,7.6,0,12.7
		c4.5,5.1,9.1,10.2,13.6,15.2c9.1,11.4,19.4,22.9,29.7,34.3c12.5,14,25,27.9,37.7,43.2c8,8.9,14.9,17.8,22.8,26.7
		c12.5,14,25,29.2,37.7,43.2C484.1,556.2,497.9,562.5,516.1,563.8z M599.3,74.6c-2.3,0-3.4,0-5.6,0c-2.3,0-5.6,1.3-8,1.3
		c-8,2.5-8,3.8-2.3,10.2c10.3,12.7,20.5,24.1,30.8,35.6c10.3,11.4,19.4,22.9,29.7,34.3c10.3,11.4,20.5,24.1,30.8,35.6
		c9.1,11.4,19.4,21.6,28.5,33c13.6,15.2,27.4,30.5,39.9,45.7c1.1,1.3,2.3,2.5,3.4,3.8c6.9,10.2,17.1,12.7,25,2.5
		c2.3-2.5,4.5-6.3,6.9-8.9c4.5-5.1,4.5-8.9,0-14c-4.5-6.3-10.3-11.4-14.9-17.8c-10.3-11.4-19.4-22.9-29.7-34.3
		c-10.3-11.4-19.4-22.9-29.7-34.3c-8-10.2-17.1-19-25-29.2c-1.1-1.3-1.1-1.3-2.3-2.5c-13.6-16.5-27.4-31.7-41-46.8
		C625.6,79.6,613.1,74.6,599.3,74.6z M681.5,72c-5.6,1.3-10.3,2.5-16,3.8c-4.5,1.3-4.5,2.5-2.3,6.3c5.6,7.6,11.4,14,18.3,21.6
		c10.3,11.4,20.5,24.1,30.8,35.6c9.1,10.2,17.1,19,26.3,29.2c5.6,6.3,10.3,12.7,16,19c12.5,14,23.9,27.9,36.5,41.9
		c5.6,6.3,13.6,6.3,20.5,0c3.4-3.8,6.9-8.9,11.4-12.7c2.3-2.5,2.3-5.1,0-7.6c-1.1-2.5-3.4-3.8-4.5-6.3
		c-10.3-11.4-19.4-22.9-29.7-34.3c-10.3-11.4-20.5-22.9-29.7-34.3c-9.1-10.2-18.3-20.3-27.4-30.5l-1.1-1.3c-6.9-6.3-12.5-14-19.4-19
		C703.2,75.8,692.9,73.3,681.5,72z M430.6,565.1c5.6-1.3,10.3-2.5,16-3.8c4.5-1.3,4.5-2.5,1.1-7.6c-6.9-7.6-13.6-15.2-19.4-24.1
		c-10.3-11.4-20.5-24.1-30.8-35.6c-9.1-11.4-19.4-21.6-28.5-33c-13.6-15.2-27.4-30.5-41-46.8c-1.1-1.3-2.3-2.5-3.4-5.1
		c-6.9-10.2-16-10.2-23.9-2.5c-2.3,2.5-4.5,6.3-8,8.9c-5.6,5.1-5.6,8.9,0,14c4.5,5.1,9.1,11.4,13.6,16.5
		c11.4,12.7,21.6,25.4,33,36.8c8,8.9,17.1,19,25,27.9c5.6,6.3,10.3,12.7,16,17.8c5.6,6.3,11.4,14,18.3,20.3
		C406.5,560,418,563.8,430.6,565.1z"/>
	<rect x="331.1" y="727.9" class="st1" width="923.9" height="261.1"/>
	<text transform="matrix(1.0122 0 0 1 105.7539 684.8223)" class="st0 st2 st3">BOYS &amp; GIRLS ClUBS OFAMERICA</text>
</g>
</svg>
